<svg width="48" height="48" viewBox="0 0 48 48" fill="none" xmlns="http://www.w3.org/2000/svg">
<path d="M23.75 34.7982C26.1732 36.741 29.2487 37.9038 32.5962 37.9038C34.1906 37.9038 35.7231 37.6392 37.1531 37.1531M23.75 34.7982C21.3268 36.741 18.2513 37.9038 14.9038 37.9038C13.3091 37.9038 11.7763 37.6394 10.346 37.1531M23.75 34.7982C25.8312 33.1296 27.4305 30.8856 28.307 28.307C30.8856 27.4305 33.1296 25.8312 34.7982 23.75M23.75 34.7982C21.6687 33.1296 20.0686 30.8857 19.1922 28.307C16.6137 27.4304 14.3694 25.8312 12.7009 23.75M37.1531 37.1531C35.2562 42.7342 29.9725 46.75 23.75 46.75C17.5274 46.75 12.2429 42.7343 10.346 37.1531M37.1531 37.1531C42.7342 35.2562 46.75 29.9725 46.75 23.75C46.75 17.5274 42.7343 12.2429 37.1531 10.346M37.1531 37.1531C37.6392 35.7231 37.9038 34.1906 37.9038 32.5962C37.9038 29.2487 36.741 26.1732 34.7982 23.75M10.346 37.1531C9.86 35.7232 9.59615 34.1905 9.59615 32.5962C9.59615 29.2489 10.7584 26.1732 12.7009 23.75M10.346 37.1531C4.76535 35.256 0.75 29.9722 0.75 23.75C0.75 17.5277 4.76521 12.2431 10.346 10.346M10.346 10.346C9.85983 11.7762 9.59615 13.3092 9.59615 14.9038C9.59615 18.2511 10.7584 21.3268 12.7009 23.75M10.346 10.346C11.7762 9.85983 13.3092 9.59615 14.9038 9.59615C18.2511 9.59615 21.3268 10.7584 23.75 12.7009M10.346 10.346C12.2431 4.76521 17.5277 0.75 23.75 0.75C29.9722 0.75 35.256 4.76535 37.1531 10.346M12.7009 23.75C14.3694 21.6687 16.6135 20.0687 19.1922 19.1922C20.0687 16.6135 21.6687 14.3694 23.75 12.7009M23.75 12.7009C25.8312 14.3694 27.4304 16.6137 28.307 19.1922C30.8857 20.0686 33.1296 21.6687 34.7982 23.75M23.75 12.7009C26.1732 10.7584 29.2489 9.59615 32.5962 9.59615C34.1905 9.59615 35.7232 9.86 37.1531 10.346M37.1531 10.346C37.6394 11.7763 37.9038 13.3091 37.9038 14.9038C37.9038 18.2513 36.741 21.3268 34.7982 23.75" stroke="#8F6E50" stroke-width="1.5"/>
<path d="M19.2372 1.64117C19.4444 2.69056 20.0109 3.63492 20.8391 4.31179C21.6674 4.98866 22.7056 5.35574 23.7753 5.34986C24.8449 5.34399 25.879 4.96553 26.6998 4.2796C27.5206 3.59367 28.0766 2.64315 28.2723 1.59155" stroke="#8F6E50" stroke-width="1.5"/>
<path d="M1.64371 28.2654C2.69309 28.0581 3.63745 27.4917 4.31432 26.6634C4.9912 25.8352 5.35827 24.7969 5.3524 23.7273C5.34652 22.6576 4.96807 21.6235 4.28213 20.8027C3.5962 19.982 2.64568 19.4259 1.59409 19.2302" stroke="#8F6E50" stroke-width="1.5"/>
<path d="M28.268 45.8588C28.0608 44.8094 27.4943 43.8651 26.6661 43.1882C25.8378 42.5113 24.7996 42.1443 23.7299 42.1501C22.6603 42.156 21.6261 42.5345 20.8054 43.2204C19.9846 43.9063 19.4285 44.8569 19.2328 45.9084" stroke="#8F6E50" stroke-width="1.5"/>
<path d="M45.8612 19.2346C44.8118 19.4419 43.8675 20.0083 43.1906 20.8366C42.5137 21.6648 42.1467 22.7031 42.1525 23.7727C42.1584 24.8424 42.5369 25.8765 43.2228 26.6973C43.9087 27.518 44.8593 28.0741 45.9109 28.2698" stroke="#8F6E50" stroke-width="1.5"/>
</svg>
